<svg id="图层_1" data-name="图层 1" xmlns="http://www.w3.org/2000/svg" viewBox="0 0 113.38 113.38"><defs><style>.cls-1{fill:#c69a42;}</style></defs><title>hb_circle</title><path class="cls-1" d="M70.25,60.74a22.44,22.44,0,0,0-8.4-1.23h-1V84.85h2A25.76,25.76,0,0,0,68,84.49a10.8,10.8,0,0,0,4.39-2,10.17,10.17,0,0,0,2.9-4.1,15.85,15.85,0,0,0,1.14-6.21A14.84,14.84,0,0,0,74.81,65,9.19,9.19,0,0,0,70.25,60.74Z" transform="translate(0 0)"/><path class="cls-1" d="M68.23,50a8.24,8.24,0,0,0,4.37-3.67,12.79,12.79,0,0,0,1.47-6.43,14.48,14.48,0,0,0-1.37-6.46,7.45,7.45,0,0,0-3.92-3.82q-2.37-1-7.91-1V50.81H61A21.84,21.84,0,0,0,68.23,50Z" transform="translate(0 0)"/><path class="cls-1" d="M56.69,0a56.69,56.69,0,1,0,56.69,56.69A56.69,56.69,0,0,0,56.69,0ZM82.63,81.8a18.63,18.63,0,0,1-4.21,6.86,16.09,16.09,0,0,1-6.29,3.64,30.17,30.17,0,0,1-9.26,1.23h-12v-34H43.74v34h-10v-34H29.06V50.9h4.69V19.84h10V50.9h7.12V19.84H62.51q6.58,0,10.56,2.24A15.24,15.24,0,0,1,79.3,29a22.06,22.06,0,0,1,2.25,9.73,20.34,20.34,0,0,1-2,8.9,16.11,16.11,0,0,1-6,6.74,15.31,15.31,0,0,1,8,6.69,21.49,21.49,0,0,1,2.8,11.16A26.7,26.7,0,0,1,82.63,81.8Z" transform="translate(0 0)"/></svg>